<svg xmlns="http://www.w3.org/2000/svg" viewBox="0 0 64 64" width="256" height="256" role="img" aria-label="BizAssist">
  <style>
    .ink { stroke: #1f1f1e; }
    .win { fill: #1f1f1e; }
    @media (prefers-color-scheme: dark) {
      .ink { stroke: #ede8e0; }
      .win { fill: #ede8e0; }
    }
  </style>
  <g class="ink" fill="none" stroke-width="2.2" stroke-linejoin="round">
    <rect x="8" y="36" width="12" height="18" rx="1"/>
    <rect x="26" y="26" width="12" height="28" rx="1"/>
    <rect x="44" y="16" width="12" height="38" rx="1"/>
  </g>
  <g class="win">
    <rect x="10.6" y="39" width="2.1" height="2.1"/><rect x="15.1" y="39" width="2.1" height="2.1"/>
    <rect x="28.5" y="29" width="2.1" height="2.1"/><rect x="33.2" y="29" width="2.1" height="2.1"/>
    <rect x="28.5" y="34" width="2.1" height="2.1"/><rect x="33.2" y="34" width="2.1" height="2.1"/>
    <rect x="46.5" y="23" width="2.1" height="2.1"/><rect x="51.2" y="23" width="2.1" height="2.1"/>
    <rect x="46.5" y="28" width="2.1" height="2.1"/><rect x="51.2" y="28" width="2.1" height="2.1"/>
    <rect x="46.5" y="33" width="2.1" height="2.1"/><rect x="51.2" y="33" width="2.1" height="2.1"/>
  </g>
  <g class="ink" fill="none" stroke-width="2.2" stroke-linejoin="round">
    <rect x="11.4" y="46" width="5.2" height="8"/>
    <rect x="29.4" y="43" width="5.2" height="11"/>
    <rect x="47.4" y="40" width="5.2" height="14"/>
  </g>
  <path d="M50 0 L51.5 4.5 L56 6 L51.5 7.5 L50 12 L48.5 7.5 L44 6 L48.5 4.5 Z" fill="#c15f3c"/>
</svg>
